<svg width="50" height="50" viewBox="0 0 50 50" fill="none" xmlns="http://www.w3.org/2000/svg">
<g clip-path="url(#clip0_0_1)">
<path d="M43.4166 24.9994C43.4166 16.2593 35.3899 9.16602 25.4999 9.16602C15.6099 9.16602 7.58325 16.2593 7.58325 24.9994C7.58325 32.6627 13.7466 39.0435 21.9166 40.516V29.7494H18.3333V24.9994H21.9166V21.041C21.9166 17.9852 24.7295 15.4993 28.1874 15.4993H32.6666V20.2494H29.0833C28.0978 20.2494 27.2916 20.9619 27.2916 21.8327V24.9994H32.6666V29.7494H27.2916V40.7535C36.3395 39.9619 43.4166 33.2169 43.4166 24.9994Z" fill="#FB9300"/>
</g>
<path d="M25 49.5C11.469 49.5 0.5 38.531 0.5 25C0.5 11.469 11.469 0.5 25 0.5C38.531 0.5 49.5 11.469 49.5 25C49.5 38.531 38.531 49.5 25 49.5Z" stroke="white"/>
<defs>
<clipPath id="clip0_0_1">
<rect width="43" height="38" fill="white" transform="translate(4 6)"/>
</clipPath>
</defs>
</svg>
