<svg width="50" height="50" viewBox="0 0 50 50" fill="none" xmlns="http://www.w3.org/2000/svg">
<path d="M0 25C0 11.1929 11.1929 0 25 0C38.8071 0 50 11.1929 50 25C50 38.8071 38.8071 50 25 50C11.1929 50 0 38.8071 0 25Z" fill="#FB9300"/>
<path fill-rule="evenodd" clip-rule="evenodd" d="M19.2644 10.4657C20.8772 10.3915 21.3915 10.375 25.5 10.375C29.6085 10.375 30.1227 10.3929 31.7342 10.4657C33.3457 10.5386 34.4457 10.7957 35.4082 11.1684C36.4161 11.5492 37.3305 12.1446 38.0867 12.9146C38.8567 13.6695 39.4507 14.5825 39.8302 15.5917C40.2042 16.5542 40.46 17.6542 40.5342 19.263C40.6085 20.8786 40.625 21.3929 40.625 25.5C40.625 29.6085 40.6071 30.1227 40.5342 31.7356C40.4614 33.3444 40.2042 34.4444 39.8302 35.4069C39.4507 36.4163 38.8558 37.3308 38.0867 38.0867C37.3305 38.8567 36.4161 39.4507 35.4082 39.8302C34.4457 40.2042 33.3457 40.46 31.737 40.5342C30.1227 40.6085 29.6085 40.625 25.5 40.625C21.3915 40.625 20.8772 40.6071 19.2644 40.5342C17.6556 40.4614 16.5556 40.2042 15.5931 39.8302C14.5838 39.4507 13.6693 38.8557 12.9132 38.0867C12.1438 37.3314 11.5483 36.4173 11.1684 35.4082C10.7957 34.4457 10.54 33.3457 10.4657 31.737C10.3915 30.1214 10.375 29.6071 10.375 25.5C10.375 21.3915 10.3929 20.8772 10.4657 19.2657C10.5386 17.6542 10.7957 16.5542 11.1684 15.5917C11.5489 14.5826 12.1448 13.6686 12.9146 12.9132C13.6696 12.1439 14.5831 11.5485 15.5917 11.1684C16.5542 10.7957 17.6542 10.54 19.263 10.4657H19.2644ZM31.6119 13.1882C30.0169 13.1154 29.5384 13.1002 25.5 13.1002C21.4616 13.1002 20.9831 13.1154 19.3881 13.1882C17.9127 13.2556 17.1125 13.5017 16.579 13.7094C15.8736 13.9844 15.369 14.3102 14.8396 14.8396C14.3378 15.3278 13.9516 15.9221 13.7094 16.579C13.5017 17.1125 13.2556 17.9127 13.1882 19.3881C13.1154 20.9831 13.1002 21.4616 13.1002 25.5C13.1002 29.5384 13.1154 30.0169 13.1882 31.6119C13.2556 33.0872 13.5017 33.8875 13.7094 34.421C13.9514 35.0769 14.3377 35.6722 14.8396 36.1604C15.3277 36.6622 15.9231 37.0486 16.579 37.2906C17.1125 37.4982 17.9127 37.7444 19.3881 37.8117C20.9831 37.8846 21.4602 37.8997 25.5 37.8997C29.5397 37.8997 30.0169 37.8846 31.6119 37.8117C33.0872 37.7444 33.8875 37.4982 34.421 37.2906C35.1264 37.0156 35.631 36.6897 36.1604 36.1604C36.6622 35.6722 37.0486 35.0769 37.2906 34.421C37.4982 33.8875 37.7444 33.0872 37.8117 31.6119C37.8846 30.0169 37.8997 29.5384 37.8997 25.5C37.8997 21.4616 37.8846 20.9831 37.8117 19.3881C37.7444 17.9127 37.4982 17.1125 37.2906 16.579C37.0156 15.8736 36.6897 15.369 36.1604 14.8396C35.6721 14.3378 35.0778 13.9517 34.421 13.7094C33.8875 13.5017 33.0872 13.2556 31.6119 13.1882V13.1882ZM23.5681 30.1626C24.647 30.6117 25.8484 30.6724 26.967 30.3341C28.0857 29.9959 29.0522 29.2798 29.7015 28.3081C30.3508 27.3364 30.6426 26.1694 30.5271 25.0065C30.4116 23.8436 29.8959 22.7568 29.0681 21.9319C28.5404 21.4045 27.9024 21.0007 27.2 20.7496C26.4975 20.4984 25.7481 20.4061 25.0057 20.4793C24.2633 20.5526 23.5463 20.7895 22.9065 21.1731C22.2666 21.5566 21.7198 22.0773 21.3053 22.6975C20.8908 23.3178 20.619 24.0223 20.5095 24.7602C20.3999 25.4981 20.4553 26.2512 20.6717 26.9651C20.8882 27.679 21.2602 28.3361 21.761 28.889C22.2618 29.4419 22.879 29.8769 23.5681 30.1626ZM20.0027 20.0027C20.7247 19.2808 21.5817 18.7082 22.5249 18.3175C23.4681 17.9268 24.4791 17.7257 25.5 17.7257C26.5209 17.7257 27.5319 17.9268 28.4751 18.3175C29.4183 18.7082 30.2753 19.2808 30.9972 20.0027C31.7192 20.7247 32.2918 21.5817 32.6825 22.5249C33.0732 23.4681 33.2743 24.4791 33.2743 25.5C33.2743 26.5209 33.0732 27.5319 32.6825 28.4751C32.2918 29.4183 31.7192 30.2753 30.9972 30.9972C29.5393 32.4552 27.5619 33.2743 25.5 33.2743C23.4381 33.2743 21.4607 32.4552 20.0027 30.9972C18.5448 29.5393 17.7257 27.5619 17.7257 25.5C17.7257 23.4381 18.5448 21.4607 20.0027 20.0027V20.0027ZM34.9985 18.8835C35.1774 18.7147 35.3206 18.5118 35.4197 18.2867C35.5187 18.0616 35.5716 17.8189 35.5752 17.573C35.5788 17.3271 35.533 17.083 35.4405 16.8551C35.3481 16.6272 35.2108 16.4202 35.0369 16.2463C34.863 16.0724 34.656 15.9352 34.4281 15.8427C34.2002 15.7503 33.9561 15.7045 33.7102 15.7081C33.4643 15.7116 33.2216 15.7645 32.9965 15.8636C32.7714 15.9626 32.5685 16.1059 32.3997 16.2847C32.0715 16.6327 31.8919 17.0948 31.8988 17.573C31.9058 18.0513 32.0989 18.508 32.4371 18.8462C32.7753 19.1844 33.232 19.3774 33.7102 19.3844C34.1885 19.3914 34.6506 19.2117 34.9985 18.8835V18.8835Z" fill="white"/>
</svg>
