<svg width="50" height="50" viewBox="0 0 50 50" fill="none" xmlns="http://www.w3.org/2000/svg">
<path d="M0.5 25C0.5 11.469 11.469 0.5 25 0.5C38.531 0.5 49.5 11.469 49.5 25C49.5 38.531 38.531 49.5 25 49.5C11.469 49.5 0.5 38.531 0.5 25Z" stroke="white"/>
<path d="M42 15.0271C40.8232 15.5248 39.5591 15.861 38.2301 16.013C39.6013 15.2299 40.6272 13.9974 41.1164 12.5454C39.828 13.2758 38.418 13.7899 36.9476 14.0654C35.9588 13.0577 34.6491 12.3898 33.2218 12.1654C31.7945 11.941 30.3296 12.1726 29.0543 12.8242C27.7791 13.4758 26.7649 14.5111 26.1693 15.7692C25.5737 17.0273 25.43 18.4379 25.7604 19.7819C23.1499 19.6568 20.5961 19.0093 18.2648 17.8812C15.9335 16.7532 13.8768 15.1699 12.2281 13.2341C11.6644 14.1622 11.3403 15.2383 11.3403 16.3843C11.3396 17.4159 11.6058 18.4318 12.1152 19.3417C12.6246 20.2517 13.3615 21.0275 14.2604 21.6005C13.2179 21.5688 12.1984 21.3 11.2867 20.8163V20.897C11.2866 22.344 11.811 23.7464 12.771 24.8663C13.7309 25.9863 15.0673 26.7547 16.5533 27.0413C15.5862 27.2911 14.5723 27.3279 13.5881 27.1489C14.0074 28.3939 14.8241 29.4827 15.9239 30.2627C17.0237 31.0427 18.3515 31.4749 19.7215 31.4989C17.3959 33.2413 14.5238 34.1865 11.5672 34.1823C11.0434 34.1825 10.5201 34.1533 10 34.0949C13.0011 35.9365 16.4946 36.9139 20.0625 36.9101C32.1404 36.9101 38.7431 27.3628 38.7431 19.0825C38.7431 18.8135 38.736 18.5418 38.7233 18.2728C40.0076 17.3863 41.1162 16.2886 41.9972 15.0311L42 15.0271Z" fill="#FB9300"/>
</svg>
